<?xml version="1.0" encoding="UTF-8"?>
<svg version="1.1" xmlns="http://www.w3.org/2000/svg" width="500" height="500">
<path d="M0 0 C1.31677734 -0.02126953 1.31677734 -0.02126953 2.66015625 -0.04296875 C4.9375 0.1875 4.9375 0.1875 6.9375 2.1875 C7.20741906 4.87589385 7.02487357 7.47891936 6.9375 10.1875 C5.2875 10.8475 3.6375 11.5075 1.9375 12.1875 C1.9375 12.8475 1.9375 13.5075 1.9375 14.1875 C0.6175 14.1875 -0.7025 14.1875 -2.0625 14.1875 C-7.60531466 14.86819654 -12.34152027 16.27875472 -17.5625 18.1875 C-20.38781603 19.22041124 -23.20853925 20.23617975 -26.0625 21.1875 C-26.3925 22.1775 -26.7225 23.1675 -27.0625 24.1875 C-23.91193711 26.87718918 -21.13063951 27.94745543 -17.125 28.9375 C-16.10535156 29.20046875 -15.08570313 29.4634375 -14.03515625 29.734375 C-10.99596954 30.1976413 -9.02493384 29.84916035 -6.0625 29.1875 C-5.0725 29.5175 -4.0825 29.8475 -3.0625 30.1875 C-3.0625 29.5275 -3.0625 28.8675 -3.0625 28.1875 C-0.7525 27.5275 1.5575 26.8675 3.9375 26.1875 C9.58647445 31.17188922 12.80402575 37.45258996 16.50390625 43.9296875 C18.15585854 46.53139982 19.11908613 47.06013445 21.9375 48.1875 C23.9375 49.1875 25.9375 50.1875 27.9375 51.1875 C27.9375 52.1775 27.9375 53.1675 27.9375 54.1875 C28.47375 54.001875 29.01 53.81625 29.5625 53.625 C33.23566355 52.94836461 36.60198401 53.51974201 39.9375 55.1875 C42.27038492 55.23324284 44.60448014 55.22574623 46.9375 55.1875 C53.71527778 55.07638889 53.71527778 55.07638889 55.9375 56.1875 C55.9375 55.5275 55.9375 54.8675 55.9375 54.1875 C56.55238281 54.15011719 57.16726563 54.11273438 57.80078125 54.07421875 C59.01314453 53.97560547 59.01314453 53.97560547 60.25 53.875 C61.05050781 53.81699219 61.85101563 53.75898438 62.67578125 53.69921875 C65.36312677 53.09120102 66.12334867 52.19991923 67.9375 50.1875 C69.10064927 49.45956026 70.28934637 48.77085625 71.5 48.125 C75.73577755 45.73756175 77.39031883 43.59762773 79.8125 39.5 C80.34359375 38.61054688 80.8746875 37.72109375 81.421875 36.8046875 C82.69695035 34.60288213 83.88416232 32.3788046 85.0625 30.125 C86.9375 27.1875 86.9375 27.1875 88.8125 26.0625 C91.9491035 26.24700609 94.18458615 27.7267702 96.9375 29.1875 C98.60112417 29.53570041 100.26745171 29.87154492 101.9375 30.1875 C102.9275 30.8475 103.9175 31.5075 104.9375 32.1875 C105.2675 31.5275 105.5975 30.8675 105.9375 30.1875 C107.13375 30.084375 108.33 29.98125 109.5625 29.875 C114.50531743 29.41105324 117.13616142 27.27608759 120.9375 24.1875 C118.03439751 20.92919438 115.62044796 19.40015222 111.5 18 C110.57316406 17.67644531 109.64632812 17.35289062 108.69140625 17.01953125 C106.11216267 16.24027042 103.58731043 15.66446588 100.9375 15.1875 C99.926875 15.001875 98.91625 14.81625 97.875 14.625 C94.77309006 14.08929246 94.77309006 14.08929246 90.9375 14.1875 C90.9375 13.5275 90.9375 12.8675 90.9375 12.1875 C89.9475 11.8575 88.9575 11.5275 87.9375 11.1875 C87.6075 7.8875 87.2775 4.5875 86.9375 1.1875 C99.39306397 -1.92639099 113.47169342 2.73850255 124.5390625 8.5546875 C127.25533931 10.22396307 129.67960692 11.92960692 131.9375 14.1875 C132.43894531 14.60644531 132.94039062 15.02539062 133.45703125 15.45703125 C135.43986143 17.77469291 135.89716118 19.92898572 136.625 22.875 C137.00205078 24.36580078 137.00205078 24.36580078 137.38671875 25.88671875 C137.65935547 27.02560547 137.65935547 27.02560547 137.9375 28.1875 C141.29183109 27.23816101 144.62996505 26.29001165 147.9375 25.1875 C149.45611755 25.09546257 150.97860426 25.05748716 152.5 25.0625 C153.67755859 25.05863281 153.67755859 25.05863281 154.87890625 25.0546875 C156.9375 25.1875 156.9375 25.1875 158.9375 26.1875 C159.64261719 26.48785156 160.34773437 26.78820312 161.07421875 27.09765625 C168.83816233 30.60510396 173.26060385 35.17215578 177.9375 42.1875 C179.60614369 51.69876901 179.70339031 60.19848357 175.9375 69.1875 C175.68226563 69.84363281 175.42703125 70.49976563 175.1640625 71.17578125 C170.78352435 81.20279289 162.41058659 89.08890312 152.375 93.25 C151.570625 93.559375 150.76625 93.86875 149.9375 94.1875 C148.844375 94.868125 147.75125 95.54875 146.625 96.25 C142.75526759 98.53973249 139.37953208 98.75057881 134.9375 99.1875 C134.37546875 99.51878906 133.8134375 99.85007812 133.234375 100.19140625 C129.11741263 101.97682361 124.48534434 101.50885955 120.04882812 101.49023438 C117.52353765 101.50782615 117.52353765 101.50782615 113.9375 102.1875 C111.83511512 104.57086605 111.83511512 104.57086605 110.9375 107.1875 C112.113125 107.2803125 112.113125 107.2803125 113.3125 107.375 C121.74023979 109.26397616 130.03008431 113.72946261 134.8125 121.0625 C136.14941072 124.7761409 136.42778564 127.26521492 135.9375 131.1875 C131.45382237 139.97550816 123.60718656 144.25817432 114.9375 148.1875 C113.95523438 148.65349609 113.95523438 148.65349609 112.953125 149.12890625 C109.3135438 150.79570561 105.90636213 151.70349242 101.9375 152.1875 C101.9375 152.5175 101.9375 152.8475 101.9375 153.1875 C100.31431021 153.54987263 98.6888642 153.90215157 97.0625 154.25 C96.15757812 154.44722656 95.25265625 154.64445313 94.3203125 154.84765625 C91.9375 155.1875 91.9375 155.1875 89.9375 154.1875 C89.9375 154.8475 89.9375 155.5075 89.9375 156.1875 C85.3175 156.5175 80.6975 156.8475 75.9375 157.1875 C75.9375 157.5175 75.9375 157.8475 75.9375 158.1875 C72.9675 157.8575 69.9975 157.5275 66.9375 157.1875 C66.9375 157.8475 66.9375 158.5075 66.9375 159.1875 C64.6275 159.1875 62.3175 159.1875 59.9375 159.1875 C59.9375 158.5275 59.9375 157.8675 59.9375 157.1875 C59.2775 157.5175 58.6175 157.8475 57.9375 158.1875 C55.16116981 158.44859688 52.40723149 158.65444508 49.625 158.8125 C48.86509766 158.8640625 48.10519531 158.915625 47.32226562 158.96875 C43.30156178 159.20628941 39.89194649 159.09006226 35.9375 158.1875 C35.6075 158.5175 35.2775 158.8475 34.9375 159.1875 C32.93791636 159.22830783 30.93704746 159.23004356 28.9375 159.1875 C28.9375 158.5275 28.9375 157.8675 28.9375 157.1875 C28.23882812 157.27128906 27.54015625 157.35507812 26.8203125 157.44140625 C25.45519531 157.59416016 25.45519531 157.59416016 24.0625 157.75 C23.15757812 157.85441406 22.25265625 157.95882812 21.3203125 158.06640625 C18.9375 158.1875 18.9375 158.1875 16.9375 157.1875 C14.9000237 156.95891886 12.85709697 156.77725722 10.8125 156.625 C9.71679688 156.54121094 8.62109375 156.45742188 7.4921875 156.37109375 C6.64914063 156.31050781 5.80609375 156.24992188 4.9375 156.1875 C4.9375 155.5275 4.9375 154.8675 4.9375 154.1875 C4.421875 154.414375 3.90625 154.64125 3.375 154.875 C0.32631085 155.26585758 -1.39677333 154.21939591 -4.109375 152.92578125 C-6.32944743 151.97175127 -6.32944743 151.97175127 -10 152 C-20.39205352 151.12506766 -32.20959847 143.78174444 -39.0625 136.1875 C-42.01620816 132.63756769 -42.43523636 130.84670456 -42.0625 126.1875 C-41.53177374 120.77409218 -41.53177374 120.77409218 -39.8125 118.625 C-39.235 118.150625 -38.6575 117.67625 -38.0625 117.1875 C-37.0415625 116.011875 -37.0415625 116.011875 -36 114.8125 C-32.08877716 111.3173647 -27.78974228 109.37817325 -23.0625 107.1875 C-21.72691445 106.52535691 -20.39274701 105.86030392 -19.0625 105.1875 C-19.805 104.218125 -20.5475 103.24875 -21.3125 102.25 C-23.8093425 98.77552058 -25.45456147 95.22600721 -27.1015625 91.29296875 C-28.0731251 88.99277579 -28.0731251 88.99277579 -30 86.4375 C-34.62258893 79.15342048 -37.27407975 70.78283211 -38.703125 62.30859375 C-39.0549739 60.23192035 -39.54702787 58.22860336 -40.0625 56.1875 C-40.84771412 51.27991176 -41.35093628 46.37048283 -41.78125 41.421875 C-42.00963092 39.02065358 -42.00963092 39.02065358 -43.0625 36.1875 C-43.18266328 34.04412235 -43.23781664 31.89670876 -43.25 29.75 C-43.26417969 28.61691406 -43.27835938 27.48382813 -43.29296875 26.31640625 C-43.06977696 23.28629398 -42.57881373 21.7531259 -41.0625 19.1875 C-40.85625 18.40375 -40.65 17.62 -40.4375 16.8125 C-36.96039695 10.17439418 -28.90745476 6.52177617 -22.0625 4.1875 C-19.49151509 3.55516645 -16.93301347 3.03153372 -14.32421875 2.58203125 C-9.40361684 1.72368791 -5.03568846 0.03708165 0 0 Z M119.9375 39.1875 C119.07125 39.47625 118.205 39.765 117.3125 40.0625 C116.19875 40.43375 115.085 40.805 113.9375 41.1875 C113.01710938 41.5071875 112.09671875 41.826875 111.1484375 42.15625 C107.85083028 43.21533553 104.56367483 44.04235874 101.1875 44.8125 C100.05828125 45.07289063 98.9290625 45.33328125 97.765625 45.6015625 C94.9375 46.1875 94.9375 46.1875 92.9375 46.1875 C92.9375 46.8475 92.9375 47.5075 92.9375 48.1875 C92.2775 48.1875 91.6175 48.1875 90.9375 48.1875 C90.4425 47.1975 90.4425 47.1975 89.9375 46.1875 C87.32384171 47.92993886 85.61321881 49.59066039 83.625 52.0625 C77.25460716 59.83784353 68.48326341 62.85632409 58.9375 65.1875 C57.4525 65.6825 57.4525 65.6825 55.9375 66.1875 C55.9375 74.4375 55.9375 82.6875 55.9375 91.1875 C59.82914348 92.48471449 62.83179226 92.31783993 66.9375 92.1875 C67.5975 91.8575 68.2575 91.5275 68.9375 91.1875 C68.9375 91.8475 68.9375 92.5075 68.9375 93.1875 C70.2678125 93.373125 70.2678125 93.373125 71.625 93.5625 C75.46653176 94.28731731 78.50997769 95.28340254 81.8125 97.375 C83.64303326 100.32419248 82.61400805 102.92796123 81.9375 106.1875 C78.4725 106.6825 78.4725 106.6825 74.9375 107.1875 C74.9375 107.8475 74.9375 108.5075 74.9375 109.1875 C73.20942682 109.52645656 71.47998026 109.85841525 69.75 110.1875 C68.78707031 110.373125 67.82414062 110.55875 66.83203125 110.75 C64.14566214 111.1560369 61.64547373 111.1875 58.9375 111.1875 C58.6075 111.5175 58.2775 111.8475 57.9375 112.1875 C56.28886043 112.28692865 54.63600887 112.31830182 52.984375 112.3203125 C51.46650391 112.32224609 51.46650391 112.32224609 49.91796875 112.32421875 C48.31888672 112.31841797 48.31888672 112.31841797 46.6875 112.3125 C45.11162109 112.31830078 45.11162109 112.31830078 43.50390625 112.32421875 C42.48683594 112.32292969 41.46976562 112.32164062 40.421875 112.3203125 C39.49084961 112.31918457 38.55982422 112.31805664 37.60058594 112.31689453 C33.60484513 112.12274871 29.85611008 111.19687033 26 110.1875 C23.53566902 109.54825625 21.29440778 109.11184209 18.75 108.8125 C15.22985573 108.03024572 13.47385582 106.72385582 10.9375 104.1875 C9.66056847 101.17758996 9.87244982 100.38265053 10.9375 97.1875 C13.9375 95.1875 13.9375 95.1875 17.9375 95.1875 C17.9375 94.5275 17.9375 93.8675 17.9375 93.1875 C19.9175 93.1875 21.8975 93.1875 23.9375 93.1875 C23.9375 92.5275 23.9375 91.8675 23.9375 91.1875 C25.2575 91.5175 26.5775 91.8475 27.9375 92.1875 C30.9075 92.1875 33.8775 92.1875 36.9375 92.1875 C36.9375 83.6075 36.9375 75.0275 36.9375 66.1875 C33.23565424 64.08993681 33.23565424 64.08993681 30.04296875 63.7109375 C18.80328953 61.81645069 11.24167234 54.2681001 3.9375 46.1875 C3.6075 46.8475 3.2775 47.5075 2.9375 48.1875 C2.2775 48.1875 1.6175 48.1875 0.9375 48.1875 C0.9375 47.5275 0.9375 46.8675 0.9375 46.1875 C-0.25875 46.06375 -1.455 45.94 -2.6875 45.8125 C-6.36051643 45.35658362 -9.55303621 44.38071769 -13.0625 43.1875 C-16.38224376 42.44739558 -19.72044244 41.8177771 -23.0625 41.1875 C-24.7125 40.8575 -26.3625 40.5275 -28.0625 40.1875 C-27.7325 44.1475 -27.4025 48.1075 -27.0625 52.1875 C-26.4025 52.1875 -25.7425 52.1875 -25.0625 52.1875 C-25.3925 53.1775 -25.7225 54.1675 -26.0625 55.1875 C-24.46563506 62.72117572 -21.92332292 70.03035964 -18.89453125 77.1015625 C-18.0625 79.1875 -18.0625 79.1875 -17.63671875 81.2734375 C-16.93040174 83.62782754 -15.82161767 84.50222184 -14.0625 86.1875 C-13.24985609 87.58060385 -12.48130147 89.00002769 -11.75 90.4375 C-9.34037652 94.89494164 -6.52876493 98.51143482 -3.0625 102.1875 C-2.35867187 102.95126953 -2.35867187 102.95126953 -1.640625 103.73046875 C-0.49686786 104.93141375 0.7149683 106.06684594 1.9375 107.1875 C2.5975 107.1875 3.2575 107.1875 3.9375 107.1875 C3.9375 107.8475 3.9375 108.5075 3.9375 109.1875 C9.63397315 114.12285774 15.66333799 117.3477314 22.9375 119.1875 C23.61941406 119.3628125 24.30132812 119.538125 25.00390625 119.71875 C30.4867523 121.10049908 30.4867523 121.10049908 35.9375 120.1875 C35.9375 120.8475 35.9375 121.5075 35.9375 122.1875 C42.5375 122.1875 49.1375 122.1875 55.9375 122.1875 C55.9375 121.5275 55.9375 120.8675 55.9375 120.1875 C56.9275 120.1875 57.9175 120.1875 58.9375 120.1875 C59.2675 120.8475 59.5975 121.5075 59.9375 122.1875 C60.96875 121.878125 62 121.56875 63.0625 121.25 C66.32722557 120.31247188 69.57363462 119.67977298 72.9375 119.1875 C72.9375 118.5275 72.9375 117.8675 72.9375 117.1875 C73.824375 116.89875 74.71125 116.61 75.625 116.3125 C78.44132424 115.35601252 81.18833156 114.31951054 83.9375 113.1875 C83.9375 112.5275 83.9375 111.8675 83.9375 111.1875 C85.2575 111.1875 86.5775 111.1875 87.9375 111.1875 C89.70722039 109.72137417 89.70722039 109.72137417 91.25 107.6875 C91.85199219 106.9553125 92.45398438 106.223125 93.07421875 105.46875 C93.68910156 104.7159375 94.30398438 103.963125 94.9375 103.1875 C96.14265542 101.85129356 97.35090931 100.51787409 98.5625 99.1875 C104.3670145 92.91548066 104.3670145 92.91548066 106.9375 85.1875 C107.9275 84.8575 108.9175 84.5275 109.9375 84.1875 C109.9375 83.5275 109.9375 82.8675 109.9375 82.1875 C110.9375 79.1875 110.9375 79.1875 112.9375 77.1875 C114.62915661 73.71020585 115.15783069 71.04328703 114.9375 67.1875 C115.9275 66.8575 116.9175 66.5275 117.9375 66.1875 C118.123125 64.90875 118.30875 63.63 118.5 62.3125 C118.60441406 61.59320313 118.70882812 60.87390625 118.81640625 60.1328125 C119.1059297 58.10609333 119.1059297 58.10609333 117.9375 56.1875 C118.9275 55.6925 118.9275 55.6925 119.9375 55.1875 C119.6075 54.1975 119.2775 53.2075 118.9375 52.1875 C119.5975 51.8575 120.2575 51.5275 120.9375 51.1875 C121.48259181 48.90333214 121.48259181 48.90333214 121.6875 46.25 C121.83445312 44.90615234 121.83445312 44.90615234 121.984375 43.53515625 C122.20481856 40.99291851 122.20481856 40.99291851 119.9375 39.1875 Z M140.9375 45.1875 C139.00055417 47.76953721 139.00055417 47.76953721 137.9375 50.1875 C136.9475 50.6825 136.9475 50.6825 135.9375 51.1875 C135.81375 52.095 135.69 53.0025 135.5625 53.9375 C134.83270508 57.73243361 133.35310272 59.24348419 130.9375 62.1875 C130.27402369 64.67150985 130.27402369 64.67150985 129.9375 67.1875 C129.30224424 68.86639021 128.63063908 70.53166775 127.9375 72.1875 C127.38771271 73.5592732 126.8465589 74.93452726 126.3125 76.3125 C126.05210937 76.97507812 125.79171875 77.63765625 125.5234375 78.3203125 C124.78779433 80.33840123 124.78779433 80.33840123 124.9375 83.1875 C125.5975 83.1875 126.2575 83.1875 126.9375 83.1875 C127.2675 83.8475 127.5975 84.5075 127.9375 85.1875 C129.236875 84.6925 129.236875 84.6925 130.5625 84.1875 C133.89468275 83.20018659 136.48909538 83.02329026 139.9375 83.1875 C140.2675 82.5275 140.5975 81.8675 140.9375 81.1875 C142.50913659 80.29432948 144.12046177 79.47006009 145.75 78.6875 C147.05904297 78.05328125 147.05904297 78.05328125 148.39453125 77.40625 C149.94373106 76.66377636 151.5065377 75.94790518 153.08984375 75.28125 C155.40094087 73.91315868 156.32012658 72.48333685 157.6875 70.1875 C158.11546875 69.48625 158.5434375 68.785 158.984375 68.0625 C160.08854888 66.24091265 160.08854888 66.24091265 159.9375 64.1875 C160.5975 63.8575 161.2575 63.5275 161.9375 63.1875 C164.01299943 58.49142049 164.40184567 54.24561412 162.5625 49.4375 C160.17052361 44.76003933 156.7124383 42.24423749 151.9375 40.1875 C147.90815778 40.1875 144.19289303 42.97933819 140.9375 45.1875 Z M37.9375 66.1875 C37.9375 74.7675 37.9375 83.3475 37.9375 92.1875 C38.2675 92.1875 38.5975 92.1875 38.9375 92.1875 C38.9375 83.6075 38.9375 75.0275 38.9375 66.1875 C38.6075 66.1875 38.2775 66.1875 37.9375 66.1875 Z M53.9375 66.1875 C53.9375 74.7675 53.9375 83.3475 53.9375 92.1875 C54.2675 92.1875 54.5975 92.1875 54.9375 92.1875 C54.9375 83.6075 54.9375 75.0275 54.9375 66.1875 C54.6075 66.1875 54.2775 66.1875 53.9375 66.1875 Z M-13.875 118.125 C-16.2625329 119.28465884 -18.4542298 119.7527883 -21.0625 120.1875 C-21.0625 120.8475 -21.0625 121.5075 -21.0625 122.1875 C-22.01125 122.455625 -22.96 122.72375 -23.9375 123 C-27.31517273 123.93736588 -27.31517273 123.93736588 -29.0625 127.1875 C-25.40980278 131.30195329 -22.39636609 133.15960756 -17.1875 134.875 C-16.01445312 135.27074219 -14.84140625 135.66648437 -13.6328125 136.07421875 C-7.06123042 138.32208371 -7.06123042 138.32208371 -0.25 139.1875 C0.471875 139.1875 1.19375 139.1875 1.9375 139.1875 C2.5975 139.8475 3.2575 140.5075 3.9375 141.1875 C6.01144172 141.22149904 8.08646962 141.24236536 10.16015625 141.1953125 C16.23169364 141.17823363 22.5567253 141.44424571 28.49609375 142.75 C31.23640644 143.24106403 33.49179526 143.08098457 36.25 142.75 C37.13300781 142.64816406 38.01601562 142.54632813 38.92578125 142.44140625 C39.92158203 142.31572266 39.92158203 142.31572266 40.9375 142.1875 C40.9375 141.8575 40.9375 141.5275 40.9375 141.1875 C40.35258789 141.13215088 39.76767578 141.07680176 39.16503906 141.01977539 C36.50554892 140.76632735 33.84653168 140.50821175 31.1875 140.25 C30.26710937 140.16298828 29.34671875 140.07597656 28.3984375 139.98632812 C27.50898438 139.89931641 26.61953125 139.81230469 25.703125 139.72265625 C24.88618164 139.644104 24.06923828 139.56555176 23.22753906 139.48461914 C15.38757129 138.46742929 6.64936523 135.89936523 0.9375 130.1875 C0.83301604 128.73052929 0.75361332 127.2717154 0.6875 125.8125 C0.34930288 121.96491325 0.34930288 121.96491325 -2.3125 119.1875 C-8.09842369 116.99110781 -8.09842369 116.99110781 -13.875 118.125 Z M94.390625 120.54296875 C92.55757217 122.61747208 92.48056547 123.76458981 92.5 126.5 C92.644375 127.716875 92.78875 128.93375 92.9375 130.1875 C92.2775 130.1875 91.6175 130.1875 90.9375 130.1875 C90.36 130.80625 89.7825 131.425 89.1875 132.0625 C86.50495033 134.59601913 84.47784365 135.21564096 80.9375 136.1875 C76.32999943 137.40649787 76.32999943 137.40649787 71.9375 139.1875 C71.6075 138.8575 71.2775 138.5275 70.9375 138.1875 C69.9475 138.5175 68.9575 138.8475 67.9375 139.1875 C65.10873731 140.01375117 62.69248795 140.27582984 59.75 140.1875 C55.76047795 139.90333303 55.76047795 139.90333303 51.9375 142.1875 C57.8775 142.5175 63.8175 142.8475 69.9375 143.1875 C69.9375 142.5275 69.9375 141.8675 69.9375 141.1875 C71.2575 141.1875 72.5775 141.1875 73.9375 141.1875 C74.2675 141.8475 74.5975 142.5075 74.9375 143.1875 C75.906875 142.8575 76.87625 142.5275 77.875 142.1875 C81.6332158 141.08529414 85.03327643 141.09495602 88.921875 141.3125 C91.2572191 141.33700736 91.2572191 141.33700736 93.9375 139.1875 C96.12890625 138.80859375 96.12890625 138.80859375 98.5 138.625 C101.84407232 138.37289562 101.84407232 138.37289562 104.9375 137.1875 C106.59944453 136.83136903 108.265951 136.49541692 109.9375 136.1875 C109.9375 135.5275 109.9375 134.8675 109.9375 134.1875 C111.195625 134.084375 112.45375 133.98125 113.75 133.875 C116.29095923 133.54727911 117.70430427 133.33794886 119.875 131.9375 C121.20420533 129.74822063 121.48340763 127.6911444 121.9375 125.1875 C116.72746666 122.09219675 111.90966479 119.40630914 105.9375 118.1875 C105.2775 118.5175 104.6175 118.8475 103.9375 119.1875 C103.4425 118.1975 103.4425 118.1975 102.9375 117.1875 C99.11337331 117.1875 97.42071515 118.33405849 94.390625 120.54296875 Z M47.9375 142.1875 C51.9375 143.1875 51.9375 143.1875 51.9375 143.1875 Z " fill="#000000" transform="translate(199.0625,250.8125)"/>
<path d="M0 0 C1.14533203 -0.01224609 2.29066406 -0.02449219 3.47070312 -0.03710938 C5.12295898 -0.04000977 5.12295898 -0.04000977 6.80859375 -0.04296875 C8.31957642 -0.04913208 8.31957642 -0.04913208 9.86108398 -0.05541992 C12.62093267 0.19275445 14.18912618 0.82045506 16.5625 2.1875 C17.2225 2.3525 17.8825 2.5175 18.5625 2.6875 C21.90372686 3.52280671 24.12857699 4.75357699 26.5625 7.1875 C26.5625 8.1775 26.5625 9.1675 26.5625 10.1875 C27.46935547 10.29191406 27.46935547 10.29191406 28.39453125 10.3984375 C32.13655517 11.76039936 32.91455712 15.09633974 34.5234375 18.53125 C35.81600337 21.83555373 36.33240292 24.65934475 36.5625 28.1875 C35.9025 28.1875 35.2425 28.1875 34.5625 28.1875 C34.5625 29.1775 34.5625 30.1675 34.5625 31.1875 C27.3025 31.1875 20.0425 31.1875 12.5625 31.1875 C12.5625 32.1775 12.5625 33.1675 12.5625 34.1875 C19.8225 34.1875 27.0825 34.1875 34.5625 34.1875 C34.5625 34.8475 34.5625 35.5075 34.5625 36.1875 C35.2225 36.1875 35.8825 36.1875 36.5625 36.1875 C36.5625 39.8175 36.5625 43.4475 36.5625 47.1875 C34.10129159 48.41810421 32.30473134 48.3932723 29.5546875 48.50390625 C28.56855469 48.54580078 27.58242188 48.58769531 26.56640625 48.63085938 C25.53386719 48.67017578 24.50132812 48.70949219 23.4375 48.75 C21.87708984 48.81477539 21.87708984 48.81477539 20.28515625 48.88085938 C17.71107472 48.9871288 15.13689492 49.08916583 12.5625 49.1875 C12.5625 50.1775 12.5625 51.1675 12.5625 52.1875 C13.18294189 52.17702637 13.80338379 52.16655273 14.44262695 52.15576172 C17.25337677 52.11419114 20.0640619 52.08817067 22.875 52.0625 C23.85146484 52.04574219 24.82792969 52.02898437 25.83398438 52.01171875 C26.77177734 52.00527344 27.70957031 51.99882812 28.67578125 51.9921875 C29.53985596 51.98171387 30.40393066 51.97124023 31.29418945 51.96044922 C33.5625 52.1875 33.5625 52.1875 36.5625 54.1875 C36.85546875 56.7890625 36.85546875 56.7890625 36.75 59.8125 C36.70939453 61.31683594 36.70939453 61.31683594 36.66796875 62.8515625 C36.63316406 63.62242187 36.59835937 64.39328125 36.5625 65.1875 C34.10974859 66.4138757 32.5119219 66.30165314 29.7734375 66.28515625 C28.83242188 66.28193359 27.89140625 66.27871094 26.921875 66.27539062 C25.93703125 66.26701172 24.9521875 66.25863281 23.9375 66.25 C22.94492187 66.24548828 21.95234375 66.24097656 20.9296875 66.23632812 C18.4738984 66.22452145 16.01822896 66.208054 13.5625 66.1875 C13.5625 67.1775 13.5625 68.1675 13.5625 69.1875 C14.18817871 69.20731934 14.81385742 69.22713867 15.45849609 69.24755859 C18.28526519 69.34264226 21.11127815 69.45238746 23.9375 69.5625 C24.92234375 69.5934375 25.9071875 69.624375 26.921875 69.65625 C27.86289062 69.69492187 28.80390625 69.73359375 29.7734375 69.7734375 C31.07740479 69.82056885 31.07740479 69.82056885 32.40771484 69.86865234 C34.5625 70.1875 34.5625 70.1875 36.5625 72.1875 C36.5625 73.1775 36.5625 74.1675 36.5625 75.1875 C35.9025 75.1875 35.2425 75.1875 34.5625 75.1875 C34.5625 76.5075 34.5625 77.8275 34.5625 79.1875 C35.2225 79.1875 35.8825 79.1875 36.5625 79.1875 C36.5625 80.8375 36.5625 82.4875 36.5625 84.1875 C35.9025 84.1875 35.2425 84.1875 34.5625 84.1875 C34.871875 84.991875 34.871875 84.991875 35.1875 85.8125 C35.89036242 90.263962 33.67182898 94.34319393 31.5625 98.1875 C26.36288057 105.19679089 19.87443707 111.65547644 11.1484375 113.7734375 C8.9375 114.0625 8.9375 114.0625 5.5625 114.1875 C5.5625 114.5175 5.5625 114.8475 5.5625 115.1875 C1.9325 115.1875 -1.6975 115.1875 -5.4375 115.1875 C-5.4375 114.5275 -5.4375 113.8675 -5.4375 113.1875 C-6.241875 113.496875 -6.241875 113.496875 -7.0625 113.8125 C-11.05950009 114.44360528 -14.23706288 113.0241683 -17.5 110.75 C-18.139375 110.234375 -18.77875 109.71875 -19.4375 109.1875 C-20.324375 108.6925 -21.21125 108.1975 -22.125 107.6875 C-24.4375 106.1875 -24.4375 106.1875 -25.4375 103.1875 C-26.035625 102.919375 -26.63375 102.65125 -27.25 102.375 C-31.69257818 99.9633147 -33.98470263 94.88115305 -35.4375 90.1875 C-37.90416667 75.3875 -37.90416667 75.3875 -34.4375 70.1875 C-32.19091797 69.84692383 -32.19091797 69.84692383 -29.4296875 69.89453125 C-28.44355469 69.90419922 -27.45742187 69.91386719 -26.44140625 69.92382812 C-25.40886719 69.94896484 -24.37632812 69.97410156 -23.3125 70 C-21.75208984 70.02030273 -21.75208984 70.02030273 -20.16015625 70.04101562 C-17.58542373 70.07644772 -15.0117167 70.12584779 -12.4375 70.1875 C-12.7675 68.8675 -13.0975 67.5475 -13.4375 66.1875 C-14.06841553 66.19273682 -14.69933105 66.19797363 -15.34936523 66.20336914 C-18.19123347 66.22407826 -21.03308588 66.23714066 -23.875 66.25 C-25.36483398 66.26256836 -25.36483398 66.26256836 -26.88476562 66.27539062 C-27.82900391 66.27861328 -28.77324219 66.28183594 -29.74609375 66.28515625 C-30.62064209 66.29039307 -31.49519043 66.29562988 -32.39624023 66.30102539 C-34.4375 66.1875 -34.4375 66.1875 -35.4375 65.1875 C-35.53601171 63.35634117 -35.56722629 61.52130067 -35.5625 59.6875 C-35.56507813 58.6871875 -35.56765625 57.686875 -35.5703125 56.65625 C-35.4375 54.1875 -35.4375 54.1875 -34.4375 53.1875 C-32.87801458 53.03063751 -31.31207332 52.93673361 -29.74609375 52.87109375 C-28.80185547 52.82919922 -27.85761719 52.78730469 -26.88476562 52.74414062 C-25.89154297 52.70482422 -24.89832031 52.66550781 -23.875 52.625 C-22.87791016 52.58181641 -21.88082031 52.53863281 -20.85351562 52.49414062 C-18.3816585 52.38769702 -15.9096969 52.28568072 -13.4375 52.1875 C-13.1075 51.1975 -12.7775 50.2075 -12.4375 49.1875 C-13.43910156 49.19910156 -14.44070312 49.21070313 -15.47265625 49.22265625 C-16.81510228 49.23204398 -18.15755036 49.24114312 -19.5 49.25 C-21.46646484 49.26740234 -21.46646484 49.26740234 -23.47265625 49.28515625 C-33.58901515 49.03598485 -33.58901515 49.03598485 -35.4375 47.1875 C-35.53636353 45.56497508 -35.56721167 43.93802727 -35.5625 42.3125 C-35.56507813 41.42820313 -35.56765625 40.54390625 -35.5703125 39.6328125 C-35.4375 37.1875 -35.4375 37.1875 -34.4375 34.1875 C-24.0425 33.6925 -24.0425 33.6925 -13.4375 33.1875 C-13.1075 32.5275 -12.7775 31.8675 -12.4375 31.1875 C-19.6975 31.1875 -26.9575 31.1875 -34.4375 31.1875 C-36.66661876 23.38558435 -36.22110758 21.89878319 -33.05078125 15.0625 C-25.82815658 2.19118824 -13.6749379 0.00766962 0 0 Z " fill="#000000" transform="translate(245.4375,188.8125)"/>
<path d="M0 0 C2.625 0.375 2.625 0.375 5 1 C5 1.66 5 2.32 5 3 C5.99 3 6.98 3 8 3 C8 3.66 8 4.32 8 5 C8.66 5.33 9.32 5.66 10 6 C10.99 6.66 11.98 7.32 13 8 C13 8.99 13 9.98 13 11 C13.66 11 14.32 11 15 11 C17.91728203 18.65786533 18.49336746 27.7687922 15.7578125 35.51953125 C13.9420948 39.1146523 11.88980354 42.41217965 9.5625 45.6875 C9.18029297 46.24244141 8.79808594 46.79738281 8.40429688 47.36914062 C6.17042266 50.55876408 3.76339714 53.27173079 1 56 C-0.17251632 57.70394381 -0.17251632 57.70394381 -1.0625 59.4375 C-1.38863281 60.035625 -1.71476562 60.63375 -2.05078125 61.25 C-2.36402344 61.8275 -2.67726562 62.405 -3 63 C-3.99477045 64.66979326 -4.99260254 66.33779419 -6 68 C-5.67 68.33 -5.34 68.66 -5 69 C-4.95745644 70.99954746 -4.95919217 73.00041636 -5 75 C-5 77.45739008 -4.25018066 78.69855566 -3.125 80.875 C-2.77695313 81.55304688 -2.42890625 82.23109375 -2.0703125 82.9296875 C-1.71710938 83.61289063 -1.36390625 84.29609375 -1 85 C-0.3314898 86.33240997 0.33572818 87.66547193 1 89 C0.01 89.99 -0.98 90.98 -2 92 C-4.64 90.68 -7.28 89.36 -10 88 C-10 87.34 -10 86.68 -10 86 C-10.90685547 85.62488281 -10.90685547 85.62488281 -11.83203125 85.2421875 C-14.32786487 83.81214229 -15.22224043 82.57480307 -16.6875 80.125 C-17.10386719 79.44695312 -17.52023438 78.76890625 -17.94921875 78.0703125 C-19.31853397 75.37240519 -20 73.02521248 -20 70 C-20.10441406 68.90365234 -20.10441406 68.90365234 -20.2109375 67.78515625 C-20.91277035 56.13807307 -14.92045266 48.97685721 -7.875 40.375 C-0.67063128 31.5538165 2.47694896 25.69137407 2.3359375 14.015625 C1.83785247 9.54444312 0.05040624 5.95435489 -2 2 C-1.34 1.34 -0.68 0.68 0 0 Z M2 26 C3 28 3 28 3 28 Z " fill="#000000" transform="translate(232,91)"/>
<path d="M0 0 C7.59805193 4.3338403 12.14440962 8.43322886 15 17 C16.07098471 23.92914203 14.458725 29.97143352 11 36 C7.82426386 40.13970327 4.40868273 44.05165506 1 48 C-4.62489272 54.64760048 -4.58671364 60.44701898 -4 69 C-5.98 69.99 -5.98 69.99 -8 71 C-13.9095023 65.58295623 -17.46080615 60.3085756 -18.0390625 52.19921875 C-17.93909977 46.57131703 -15.61342736 41.87047827 -13 37 C-12.34 37 -11.68 37 -11 37 C-10.67 36.34 -10.34 35.68 -10 35 C-7.8858147 32.28176175 -5.72616374 29.70660401 -3.375 27.1875 C0.23412017 22.34368082 1.36892465 17.88086137 0.75 11.875 C0.08335233 8.43065368 -0.76981354 5.28049723 -2 2 C-1.34 1.34 -0.68 0.68 0 0 Z " fill="#000000" transform="translate(263,111)"/>
<path d="M0 0 C0.33 0 0.66 0 1 0 C1 3.3 1 6.6 1 10 C0.67 10 0.34 10 0 10 C0 6.7 0 3.4 0 0 Z " fill="#000000" transform="translate(249,110)"/>
<path d="M0 0 C0.33 0 0.66 0 1 0 C1 1.65 1 3.3 1 5 C0.67 5 0.34 5 0 5 C0 3.35 0 1.7 0 0 Z " fill="#000000" transform="translate(157,294)"/>
<path d="M0 0 C3 1 3 1 3 1 Z " fill="#000000" transform="translate(287,390)"/>
<path d="M0 0 C3 1 3 1 3 1 Z " fill="#000000" transform="translate(203,390)"/>
<path d="M0 0 C3 1 3 1 3 1 Z " fill="#000000" transform="translate(290,250)"/>
<path d="M0 0 C3 1 3 1 3 1 Z " fill="#000000" transform="translate(198,250)"/>
<path d="M0 0 C2 1 2 1 2 1 Z " fill="#000000" transform="translate(191,403)"/>
<path d="" fill="#000000" transform="translate(0,0)"/>
<path d="M0 0 C2 1 2 1 2 1 Z " fill="#000000" transform="translate(267,369)"/>
<path d="" fill="#000000" transform="translate(0,0)"/>
<path d="M0 0 C2 1 2 1 2 1 Z " fill="#000000" transform="translate(259,316)"/>
<path d="M0 0 C2 1 2 1 2 1 Z " fill="#000000" transform="translate(230,316)"/>
<path d="" fill="#000000" transform="translate(0,0)"/>
<path d="" fill="#000000" transform="translate(0,0)"/>
<path d="" fill="#000000" transform="translate(0,0)"/>
<path d="" fill="#000000" transform="translate(0,0)"/>
<path d="" fill="#000000" transform="translate(0,0)"/>
<path d="" fill="#000000" transform="translate(0,0)"/>
<path d="" fill="#000000" transform="translate(0,0)"/>
<path d="" fill="#000000" transform="translate(0,0)"/>
<path d="" fill="#000000" transform="translate(0,0)"/>
<path d="" fill="#000000" transform="translate(0,0)"/>
<path d="" fill="#000000" transform="translate(0,0)"/>
<path d="" fill="#000000" transform="translate(0,0)"/>
<path d="" fill="#000000" transform="translate(0,0)"/>
<path d="" fill="#000000" transform="translate(0,0)"/>
<path d="" fill="#000000" transform="translate(0,0)"/>
<path d="" fill="#000000" transform="translate(0,0)"/>
<path d="" fill="#000000" transform="translate(0,0)"/>
<path d="" fill="#000000" transform="translate(0,0)"/>
<path d="" fill="#000000" transform="translate(0,0)"/>
<path d="" fill="#000000" transform="translate(0,0)"/>
<path d="" fill="#000000" transform="translate(0,0)"/>
<path d="" fill="#000000" transform="translate(0,0)"/>
<path d="" fill="#000000" transform="translate(0,0)"/>
<path d="" fill="#000000" transform="translate(0,0)"/>
</svg>
